<svg width="117" height="25" viewBox="0 0 117 25" fill="none" xmlns="http://www.w3.org/2000/svg">
<path d="M2.58862 12.1343H24.1066L2.58862 24.2685V12.1343Z" fill="#F93F3F"/>
<path d="M2.58862 12.1343H24.1066L2.58862 5.72205e-05V12.1343Z" fill="#F93F3F"/>
<path d="M2.58863 9.54565L0 12.1343L2.58863 14.7229V9.54565Z" fill="#C12323"/>
<path d="M2.58862 9.54565L24.1066 12.1343H2.58862V9.54565Z" fill="#C12323"/>
<path d="M38.5822 19.224C37.8355 19.224 37.1315 19.0907 36.4702 18.824C35.8089 18.5573 35.2329 18.168 34.7422 17.656C34.2515 17.144 33.8622 16.5093 33.5742 15.752C33.2969 14.9947 33.1582 14.12 33.1582 13.128C33.1582 12.1573 33.3022 11.288 33.5902 10.52C33.8889 9.752 34.2889 9.10133 34.7902 8.568C35.2915 8.03467 35.8729 7.62933 36.5342 7.352C37.2062 7.07467 37.9155 6.936 38.6622 6.936C39.4195 6.936 40.0915 7.09067 40.6782 7.4C41.2649 7.69867 41.7502 8.05067 42.1342 8.456L40.8862 9.96C40.5875 9.672 40.2622 9.43733 39.9102 9.256C39.5582 9.064 39.1582 8.968 38.7102 8.968C38.2622 8.968 37.8462 9.064 37.4622 9.256C37.0782 9.43733 36.7475 9.704 36.4702 10.056C36.1929 10.408 35.9742 10.8347 35.8142 11.336C35.6542 11.8373 35.5742 12.408 35.5742 13.048C35.5742 13.688 35.6435 14.264 35.7822 14.776C35.9315 15.288 36.1395 15.7253 36.4062 16.088C36.6835 16.44 37.0089 16.712 37.3822 16.904C37.7662 17.0853 38.1929 17.176 38.6622 17.176C39.1742 17.176 39.6275 17.0693 40.0222 16.856C40.4275 16.632 40.7902 16.3493 41.1102 16.008L42.3582 17.48C41.8675 18.056 41.3075 18.4933 40.6782 18.792C40.0489 19.08 39.3502 19.224 38.5822 19.224ZM44.0738 19V6.232H46.4098V19H44.0738ZM52.8647 19.224C52.2994 19.224 51.7554 19.1173 51.2327 18.904C50.7207 18.6907 50.2674 18.3867 49.8727 17.992C49.478 17.5867 49.158 17.096 48.9127 16.52C48.678 15.9333 48.5607 15.272 48.5607 14.536C48.5607 13.7893 48.678 13.1227 48.9127 12.536C49.158 11.9493 49.478 11.4587 49.8727 11.064C50.2674 10.6587 50.7207 10.3493 51.2327 10.136C51.7554 9.92267 52.2994 9.816 52.8647 9.816C53.4194 9.816 53.958 9.92267 54.4807 10.136C55.0034 10.3493 55.462 10.6587 55.8567 11.064C56.2514 11.4587 56.566 11.9493 56.8007 12.536C57.046 13.1227 57.1687 13.7893 57.1687 14.536C57.1687 15.272 57.046 15.9333 56.8007 16.52C56.566 17.096 56.2514 17.5867 55.8567 17.992C55.462 18.3867 55.0034 18.6907 54.4807 18.904C53.958 19.1173 53.4194 19.224 52.8647 19.224ZM52.8647 17.304C53.4727 17.304 53.942 17.0533 54.2727 16.552C54.6034 16.0507 54.7687 15.3787 54.7687 14.536C54.7687 13.6827 54.6034 13.0053 54.2727 12.504C53.942 11.992 53.4727 11.736 52.8647 11.736C52.2567 11.736 51.7874 11.992 51.4567 12.504C51.126 13.0053 50.9607 13.6827 50.9607 14.536C50.9607 15.3787 51.126 16.0507 51.4567 16.552C51.7874 17.0533 52.2567 17.304 52.8647 17.304ZM59.1363 10.04H61.0563L61.2163 11.224H61.2803C61.675 10.84 62.107 10.5093 62.5763 10.232C63.0456 9.95467 63.5843 9.816 64.1923 9.816C65.163 9.816 65.867 10.136 66.3043 10.776C66.7416 11.4053 66.9603 12.2853 66.9603 13.416V19H64.6083V13.704C64.6083 13.0107 64.507 12.5253 64.3043 12.248C64.1123 11.9707 63.7923 11.832 63.3443 11.832C62.971 11.832 62.651 11.9173 62.3843 12.088C62.1176 12.2587 61.8136 12.5093 61.4723 12.84V19H59.1363V10.04ZM73.2743 19.224C72.645 19.224 72.0583 19.1173 71.5143 18.904C70.981 18.6907 70.5116 18.3867 70.1063 17.992C69.7116 17.5867 69.397 17.096 69.1623 16.52C68.9383 15.9333 68.8263 15.272 68.8263 14.536C68.8263 13.8107 68.9436 13.16 69.1783 12.584C69.413 11.9973 69.7223 11.5013 70.1063 11.096C70.501 10.68 70.949 10.3653 71.4503 10.152C71.9516 9.928 72.469 9.816 73.0023 9.816C73.621 9.816 74.1596 9.92267 74.6183 10.136C75.0876 10.3493 75.477 10.648 75.7863 11.032C76.1063 11.416 76.3463 11.8693 76.5063 12.392C76.6663 12.9147 76.7463 13.4853 76.7463 14.104C76.7463 14.3173 76.7356 14.5253 76.7143 14.728C76.693 14.92 76.6663 15.0693 76.6343 15.176H71.1143C71.2103 15.912 71.477 16.472 71.9143 16.856C72.3623 17.2293 72.9223 17.416 73.5943 17.416C73.9676 17.416 74.3143 17.3627 74.6343 17.256C74.965 17.1493 75.2903 16.9947 75.6103 16.792L76.4103 18.232C75.9623 18.5413 75.4663 18.7867 74.9223 18.968C74.389 19.1387 73.8396 19.224 73.2743 19.224ZM74.7303 13.624C74.7303 13.016 74.5916 12.536 74.3143 12.184C74.037 11.8213 73.6103 11.64 73.0343 11.64C72.565 11.64 72.1436 11.8107 71.7703 12.152C71.397 12.4827 71.1676 12.9733 71.0823 13.624H74.7303ZM80.7272 9.128H77.3992V7.16H86.4552V9.128H83.0952V19H80.7272V9.128ZM90.0579 19.224C89.0979 19.224 88.3993 18.9093 87.9619 18.28C87.5246 17.64 87.3059 16.76 87.3059 15.64V10.04H89.6579V15.336C89.6579 16.04 89.7539 16.5307 89.9459 16.808C90.1486 17.0747 90.4686 17.208 90.9059 17.208C91.2793 17.208 91.5993 17.1227 91.8659 16.952C92.1326 16.7813 92.4206 16.4933 92.7299 16.088V10.04H95.0819V19H93.1619L92.9859 17.72H92.9219C92.5379 18.1787 92.1166 18.5467 91.6579 18.824C91.2099 19.0907 90.6766 19.224 90.0579 19.224ZM102.085 19.224C101.68 19.224 101.269 19.1227 100.853 18.92C100.448 18.7173 100.059 18.4293 99.6854 18.056H99.6374L99.4294 19H97.5894V6.232H99.9254V9.448L99.8774 10.888C100.229 10.568 100.619 10.312 101.045 10.12C101.472 9.91733 101.909 9.816 102.357 9.816C102.912 9.816 103.408 9.928 103.845 10.152C104.283 10.3653 104.651 10.6693 104.949 11.064C105.259 11.4587 105.493 11.9387 105.653 12.504C105.813 13.0587 105.893 13.6773 105.893 14.36C105.893 15.128 105.787 15.816 105.573 16.424C105.36 17.0213 105.077 17.528 104.725 17.944C104.373 18.36 103.968 18.68 103.509 18.904C103.051 19.1173 102.576 19.224 102.085 19.224ZM101.557 17.288C102.101 17.288 102.555 17.0533 102.917 16.584C103.291 16.1147 103.477 15.3893 103.477 14.408C103.477 13.544 103.333 12.888 103.045 12.44C102.768 11.9813 102.32 11.752 101.701 11.752C101.392 11.752 101.093 11.832 100.805 11.992C100.528 12.1413 100.235 12.3707 99.9254 12.68V16.616C100.203 16.8613 100.48 17.0373 100.757 17.144C101.045 17.24 101.312 17.288 101.557 17.288ZM111.774 19.224C111.145 19.224 110.558 19.1173 110.014 18.904C109.481 18.6907 109.012 18.3867 108.606 17.992C108.212 17.5867 107.897 17.096 107.662 16.52C107.438 15.9333 107.326 15.272 107.326 14.536C107.326 13.8107 107.444 13.16 107.678 12.584C107.913 11.9973 108.222 11.5013 108.606 11.096C109.001 10.68 109.449 10.3653 109.95 10.152C110.452 9.928 110.969 9.816 111.502 9.816C112.121 9.816 112.66 9.92267 113.118 10.136C113.588 10.3493 113.977 10.648 114.286 11.032C114.606 11.416 114.846 11.8693 115.006 12.392C115.166 12.9147 115.246 13.4853 115.246 14.104C115.246 14.3173 115.236 14.5253 115.214 14.728C115.193 14.92 115.166 15.0693 115.134 15.176H109.614C109.71 15.912 109.977 16.472 110.414 16.856C110.862 17.2293 111.422 17.416 112.094 17.416C112.468 17.416 112.814 17.3627 113.134 17.256C113.465 17.1493 113.79 16.9947 114.11 16.792L114.91 18.232C114.462 18.5413 113.966 18.7867 113.422 18.968C112.889 19.1387 112.34 19.224 111.774 19.224ZM113.23 13.624C113.23 13.016 113.092 12.536 112.814 12.184C112.537 11.8213 112.11 11.64 111.534 11.64C111.065 11.64 110.644 11.8107 110.27 12.152C109.897 12.4827 109.668 12.9733 109.582 13.624H113.23Z" fill="white"/>
</svg>
