<svg width="68" height="156" viewBox="0 0 68 156" fill="none" xmlns="http://www.w3.org/2000/svg">
<path d="M20.0618 150.697C21.1388 149.402 21.888 147.865 22.2458 146.219C22.6035 144.572 22.5595 142.863 22.1173 141.237C21.6751 139.611 20.8477 138.116 19.7052 136.877C18.5628 135.638 17.1388 134.693 15.5537 134.121C13.9686 133.549 12.2691 133.367 10.599 133.591C8.92881 133.815 7.33711 134.438 5.95854 135.407C4.57996 136.376 3.45506 137.663 2.67899 139.159C1.90293 140.654 1.49853 142.315 1.5 144C1.50057 146.45 2.36381 148.821 3.93825 150.697L3.92325 150.71C3.97575 150.773 4.03575 150.827 4.08975 150.889C4.15725 150.967 4.23 151.039 4.29975 151.114C4.50975 151.342 4.72575 151.561 4.95225 151.767C5.02125 151.83 5.0925 151.888 5.16225 151.948C5.40225 152.155 5.649 152.352 5.90475 152.535C5.93775 152.557 5.96775 152.587 6.00075 152.61V152.601C7.75733 153.837 9.85283 154.501 12.0008 154.501C14.1487 154.501 16.2442 153.837 18.0008 152.601V152.61C18.0338 152.587 18.063 152.557 18.0968 152.535C18.3518 152.351 18.5993 152.155 18.8393 151.948C18.909 151.888 18.9803 151.829 19.0493 151.767C19.2758 151.561 19.4918 151.342 19.7018 151.114C19.7715 151.039 19.8435 150.967 19.9118 150.889C19.965 150.827 20.0258 150.773 20.0783 150.709L20.0618 150.697ZM12 138C12.6675 138 13.32 138.198 13.8751 138.569C14.4301 138.94 14.8627 139.467 15.1181 140.083C15.3735 140.7 15.4404 141.379 15.3102 142.033C15.1799 142.688 14.8585 143.289 14.3865 143.761C13.9145 144.233 13.3131 144.555 12.6584 144.685C12.0037 144.815 11.3251 144.749 10.7084 144.493C10.0917 144.238 9.56464 143.805 9.19379 143.25C8.82294 142.695 8.625 142.043 8.625 141.375C8.625 140.48 8.98058 139.621 9.61352 138.989C10.2465 138.356 11.1049 138 12 138ZM6.00525 150.697C6.01826 149.713 6.41846 148.773 7.11927 148.081C7.82008 147.389 8.76514 147.001 9.75 147H14.25C15.2349 147.001 16.1799 147.389 16.8807 148.081C17.5815 148.773 17.9817 149.713 17.9948 150.697C16.3499 152.18 14.2142 153 12 153C9.78581 153 7.65012 152.18 6.00525 150.697Z" fill="#666666"/>
<path d="M21.9 62.7533L21.6733 62.5533C21.0303 61.9804 20.4674 61.3234 20 60.6C19.4895 59.6017 19.1835 58.5115 19.1 57.3933V54.1C19.1044 52.3437 18.4673 50.6463 17.3085 49.3266C16.1496 48.007 14.5488 47.1559 12.8067 46.9333V46.0733C12.8067 45.8373 12.7129 45.6109 12.546 45.444C12.3791 45.2771 12.1527 45.1833 11.9167 45.1833C11.6806 45.1833 11.4542 45.2771 11.2873 45.444C11.1204 45.6109 11.0267 45.8373 11.0267 46.0733V46.9467C9.30016 47.1853 7.71864 48.0415 6.57501 49.3567C5.43138 50.672 4.80315 52.3571 4.80666 54.1V57.3933C4.72316 58.5115 4.41718 59.6017 3.90666 60.6C3.44725 61.3216 2.89346 61.9785 2.25999 62.5533L2.03333 62.7533V64.6333H21.9V62.7533Z" fill="#666666"/>
<path d="M10.2133 65.3333C10.2718 65.7559 10.4812 66.1431 10.8028 66.4233C11.1245 66.7035 11.5367 66.8579 11.9633 66.8579C12.3899 66.8579 12.8021 66.7035 13.1238 66.4233C13.4455 66.1431 13.6549 65.7559 13.7133 65.3333H10.2133Z" fill="#666666"/>
<path d="M21 3H3C1.89 3 1 3.89 1 5V8H3V5H21V19H14V21H21C21.5304 21 22.0391 20.7893 22.4142 20.4142C22.7893 20.0391 23 19.5304 23 19V5C23 4.46957 22.7893 3.96086 22.4142 3.58579C22.0391 3.21071 21.5304 3 21 3ZM1 10V12C2.1819 12 3.35222 12.2328 4.44415 12.6851C5.53608 13.1374 6.52823 13.8003 7.36396 14.636C8.19969 15.4718 8.86262 16.4639 9.31492 17.5558C9.76721 18.6478 10 19.8181 10 21H12C12 14.92 7.07 10 1 10ZM19 7H5V8.63C8.96 9.91 12.09 13.04 13.37 17H19V7ZM1 14V16C1.65661 16 2.30679 16.1293 2.91342 16.3806C3.52005 16.6319 4.07124 17.0002 4.53553 17.4645C4.99983 17.9288 5.36812 18.48 5.6194 19.0866C5.87067 19.6932 6 20.3434 6 21H8C8 19.1435 7.2625 17.363 5.94975 16.0503C4.63699 14.7375 2.85652 14 1 14ZM1 18V21H4C4 20.2044 3.68393 19.4413 3.12132 18.8787C2.55871 18.3161 1.79565 18 1 18Z" fill="#666666"/>
<path d="M9.99997 90.5C11.3979 90.4999 12.7681 90.8906 13.9559 91.6279C15.1436 92.3652 16.1016 93.4198 16.7218 94.6727C17.342 95.9256 17.5997 97.3269 17.4658 98.7184C17.3319 100.11 16.8117 101.436 15.964 102.548L20.707 107.293C20.8863 107.473 20.9904 107.714 20.9982 107.968C21.006 108.222 20.9168 108.47 20.7487 108.66C20.5807 108.851 20.3464 108.97 20.0935 108.994C19.8406 109.018 19.588 108.945 19.387 108.79L19.293 108.707L14.548 103.964C13.601 104.686 12.4956 105.172 11.3234 105.382C10.1512 105.592 8.9458 105.52 7.80697 105.172C6.66814 104.824 5.62862 104.209 4.77443 103.38C3.92023 102.55 3.27592 101.528 2.8948 100.4C2.51368 99.2719 2.40672 98.0691 2.58277 96.8913C2.75881 95.7135 3.2128 94.5945 3.90717 93.627C4.60153 92.6595 5.51631 91.8713 6.57581 91.3275C7.63532 90.7837 8.80908 90.5001 9.99997 90.5ZM9.99997 92.5C8.54128 92.5 7.14233 93.0795 6.11088 94.1109C5.07943 95.1424 4.49997 96.5413 4.49997 98C4.49997 99.4587 5.07943 100.858 6.11088 101.889C7.14233 102.921 8.54128 103.5 9.99997 103.5C11.4587 103.5 12.8576 102.921 13.8891 101.889C14.9205 100.858 15.5 99.4587 15.5 98C15.5 96.5413 14.9205 95.1424 13.8891 94.1109C12.8576 93.0795 11.4587 92.5 9.99997 92.5Z" fill="#666666"/>
<path d="M64.0618 150.697C65.1388 149.402 65.888 147.865 66.2458 146.219C66.6035 144.572 66.5595 142.863 66.1173 141.237C65.6751 139.611 64.8477 138.116 63.7052 136.877C62.5628 135.638 61.1388 134.693 59.5537 134.121C57.9686 133.549 56.2691 133.367 54.599 133.591C52.9288 133.815 51.3371 134.438 49.9585 135.407C48.58 136.376 47.4551 137.663 46.679 139.159C45.9029 140.654 45.4985 142.315 45.5 144C45.5006 146.45 46.3638 148.821 47.9383 150.697L47.9233 150.71C47.9758 150.773 48.0358 150.827 48.0898 150.889C48.1573 150.967 48.23 151.039 48.2998 151.114C48.5098 151.342 48.7258 151.561 48.9523 151.767C49.0213 151.83 49.0925 151.888 49.1623 151.948C49.4023 152.155 49.649 152.352 49.9048 152.535C49.9378 152.557 49.9678 152.587 50.0008 152.61V152.601C51.7573 153.837 53.8528 154.501 56.0008 154.501C58.1487 154.501 60.2442 153.837 62.0008 152.601V152.61C62.0338 152.587 62.063 152.557 62.0968 152.535C62.3518 152.351 62.5993 152.155 62.8393 151.948C62.909 151.888 62.9803 151.829 63.0493 151.767C63.2758 151.561 63.4918 151.342 63.7018 151.114C63.7715 151.039 63.8435 150.967 63.9118 150.889C63.965 150.827 64.0258 150.773 64.0783 150.709L64.0618 150.697ZM56 138C56.6675 138 57.32 138.198 57.8751 138.569C58.4301 138.94 58.8627 139.467 59.1181 140.083C59.3735 140.7 59.4404 141.379 59.3102 142.033C59.1799 142.688 58.8585 143.289 58.3865 143.761C57.9145 144.233 57.3131 144.555 56.6584 144.685C56.0037 144.815 55.3251 144.749 54.7084 144.493C54.0917 144.238 53.5646 143.805 53.1938 143.25C52.8229 142.695 52.625 142.043 52.625 141.375C52.625 140.48 52.9806 139.621 53.6135 138.989C54.2465 138.356 55.1049 138 56 138ZM50.0053 150.697C50.0183 149.713 50.4185 148.773 51.1193 148.081C51.8201 147.389 52.7651 147.001 53.75 147H58.25C59.2349 147.001 60.1799 147.389 60.8807 148.081C61.5815 148.773 61.9817 149.713 61.9948 150.697C60.3499 152.18 58.2142 153 56 153C53.7858 153 51.6501 152.18 50.0053 150.697Z" fill="#1D1D1D"/>
<path d="M65.9 62.7533L65.6733 62.5533C65.0303 61.9804 64.4674 61.3234 64 60.6C63.4895 59.6017 63.1835 58.5115 63.1 57.3933V54.1C63.1044 52.3437 62.4673 50.6463 61.3085 49.3266C60.1496 48.007 58.5488 47.1559 56.8067 46.9333V46.0733C56.8067 45.8373 56.7129 45.6109 56.546 45.444C56.3791 45.2771 56.1527 45.1833 55.9167 45.1833C55.6806 45.1833 55.4542 45.2771 55.2873 45.444C55.1204 45.6109 55.0267 45.8373 55.0267 46.0733V46.9467C53.3002 47.1853 51.7186 48.0415 50.575 49.3567C49.4314 50.672 48.8031 52.3571 48.8067 54.1V57.3933C48.7232 58.5115 48.4172 59.6017 47.9067 60.6C47.4472 61.3216 46.8935 61.9785 46.26 62.5533L46.0333 62.7533V64.6333H65.9V62.7533Z" fill="#1D1D1D"/>
<path d="M54.2133 65.3333C54.2718 65.7559 54.4812 66.1431 54.8028 66.4233C55.1245 66.7035 55.5367 66.8579 55.9633 66.8579C56.3899 66.8579 56.8021 66.7035 57.1238 66.4233C57.4455 66.1431 57.6549 65.7559 57.7133 65.3333H54.2133Z" fill="#1D1D1D"/>
<path d="M65 3H47C45.89 3 45 3.89 45 5V8H47V5H65V19H58V21H65C65.5304 21 66.0391 20.7893 66.4142 20.4142C66.7893 20.0391 67 19.5304 67 19V5C67 4.46957 66.7893 3.96086 66.4142 3.58579C66.0391 3.21071 65.5304 3 65 3ZM45 10V12C46.1819 12 47.3522 12.2328 48.4442 12.6851C49.5361 13.1374 50.5282 13.8003 51.364 14.636C52.1997 15.4718 52.8626 16.4639 53.3149 17.5558C53.7672 18.6478 54 19.8181 54 21H56C56 14.92 51.07 10 45 10ZM63 7H49V8.63C52.96 9.91 56.09 13.04 57.37 17H63V7ZM45 14V16C45.6566 16 46.3068 16.1293 46.9134 16.3806C47.52 16.6319 48.0712 17.0002 48.5355 17.4645C48.9998 17.9288 49.3681 18.48 49.6194 19.0866C49.8707 19.6932 50 20.3434 50 21H52C52 19.1435 51.2625 17.363 49.9497 16.0503C48.637 14.7375 46.8565 14 45 14ZM45 18V21H48C48 20.2044 47.6839 19.4413 47.1213 18.8787C46.5587 18.3161 45.7956 18 45 18Z" fill="#1D1D1D"/>
<path d="M54 90.5C55.3979 90.4999 56.7681 90.8906 57.9559 91.6279C59.1436 92.3652 60.1016 93.4198 60.7218 94.6727C61.342 95.9256 61.5997 97.3269 61.4658 98.7184C61.3319 100.11 60.8117 101.436 59.964 102.548L64.707 107.293C64.8863 107.473 64.9904 107.714 64.9982 107.968C65.006 108.222 64.9168 108.47 64.7487 108.66C64.5807 108.851 64.3464 108.97 64.0935 108.994C63.8406 109.018 63.588 108.945 63.387 108.79L63.293 108.707L58.548 103.964C57.601 104.686 56.4956 105.172 55.3234 105.382C54.1512 105.592 52.9458 105.52 51.807 105.172C50.6681 104.824 49.6286 104.209 48.7744 103.38C47.9202 102.55 47.2759 101.528 46.8948 100.4C46.5137 99.2719 46.4067 98.0691 46.5828 96.8913C46.7588 95.7135 47.2128 94.5945 47.9072 93.627C48.6015 92.6595 49.5163 91.8713 50.5758 91.3275C51.6353 90.7837 52.8091 90.5001 54 90.5ZM54 92.5C52.5413 92.5 51.1423 93.0795 50.1109 94.1109C49.0794 95.1424 48.5 96.5413 48.5 98C48.5 99.4587 49.0794 100.858 50.1109 101.889C51.1423 102.921 52.5413 103.5 54 103.5C55.4587 103.5 56.8576 102.921 57.8891 101.889C58.9205 100.858 59.5 99.4587 59.5 98C59.5 96.5413 58.9205 95.1424 57.8891 94.1109C56.8576 93.0795 55.4587 92.5 54 92.5Z" fill="#1D1D1D"/>
</svg>
