<svg width="164" height="32" viewBox="0 0 164 32" fill="none" xmlns="http://www.w3.org/2000/svg">
<path d="M13.3333 3.33325C15.1973 3.33318 17.0242 3.85407 18.6078 4.83715C20.1915 5.82023 21.4689 7.22636 22.2958 8.89686C23.1227 10.5674 23.4663 12.4357 23.2878 14.2911C23.1092 16.1465 22.4156 17.9151 21.2853 19.3973L27.6093 25.7239C27.8485 25.9639 27.9873 26.2858 27.9976 26.6244C28.008 26.963 27.889 27.2929 27.665 27.547C27.441 27.801 27.1286 27.9603 26.7914 27.9924C26.4541 28.0246 26.1173 27.9271 25.8493 27.7199L25.724 27.6093L19.3973 21.2852C18.1347 22.248 16.6609 22.8963 15.0979 23.1764C13.535 23.4565 11.9278 23.3604 10.4093 22.8961C8.8909 22.4317 7.50487 21.6124 6.36594 20.506C5.22701 19.3996 4.36793 18.0379 3.85977 16.5335C3.35162 15.0291 3.209 13.4254 3.44373 11.855C3.67845 10.2846 4.28377 8.79264 5.20959 7.50262C6.13542 6.2126 7.35512 5.16159 8.76779 4.43657C10.1805 3.71154 11.7455 3.33334 13.3333 3.33325ZM13.3333 5.99992C11.3884 5.99992 9.52315 6.77254 8.14789 8.1478C6.77262 9.52307 6 11.3883 6 13.3333C6 15.2782 6.77262 17.1434 8.14789 18.5187C9.52315 19.894 11.3884 20.6666 13.3333 20.6666C15.2783 20.6666 17.1435 19.894 18.5188 18.5187C19.8941 17.1434 20.6667 15.2782 20.6667 13.3333C20.6667 11.3883 19.8941 9.52307 18.5188 8.1478C17.1435 6.77254 15.2783 5.99992 13.3333 5.99992Z" fill="#666666"/>
<path d="M79.3333 3.33325C81.1973 3.33318 83.0242 3.85407 84.6078 4.83715C86.1915 5.82023 87.4689 7.22636 88.2958 8.89686C89.1227 10.5674 89.4663 12.4357 89.2878 14.2911C89.1092 16.1465 88.4156 17.9151 87.2853 19.3973L93.6093 25.7239C93.8485 25.9639 93.9873 26.2858 93.9976 26.6244C94.008 26.963 93.889 27.2929 93.665 27.547C93.441 27.801 93.1286 27.9603 92.7914 27.9924C92.4541 28.0246 92.1173 27.9271 91.8493 27.7199L91.724 27.6093L85.3973 21.2852C84.1347 22.248 82.6609 22.8963 81.0979 23.1764C79.535 23.4565 77.9278 23.3604 76.4093 22.8961C74.8909 22.4317 73.5049 21.6124 72.3659 20.506C71.227 19.3996 70.3679 18.0379 69.8598 16.5335C69.3516 15.0291 69.209 13.4254 69.4437 11.855C69.6785 10.2846 70.2838 8.79264 71.2096 7.50262C72.1354 6.2126 73.3551 5.16159 74.7678 4.43657C76.1805 3.71154 77.7455 3.33334 79.3333 3.33325ZM79.3333 5.99992C77.3884 5.99992 75.5232 6.77254 74.1479 8.1478C72.7726 9.52307 72 11.3883 72 13.3333C72 15.2782 72.7726 17.1434 74.1479 18.5187C75.5232 19.894 77.3884 20.6666 79.3333 20.6666C81.2783 20.6666 83.1435 19.894 84.5188 18.5187C85.8941 17.1434 86.6667 15.2782 86.6667 13.3333C86.6667 11.3883 85.8941 9.52307 84.5188 8.1478C83.1435 6.77254 81.2783 5.99992 79.3333 5.99992Z" fill="white"/>
<path d="M145.333 3.33325C147.197 3.33318 149.024 3.85407 150.608 4.83715C152.191 5.82023 153.469 7.22636 154.296 8.89686C155.123 10.5674 155.466 12.4357 155.288 14.2911C155.109 16.1465 154.416 17.9151 153.285 19.3973L159.609 25.7239C159.848 25.9639 159.987 26.2858 159.998 26.6244C160.008 26.963 159.889 27.2929 159.665 27.547C159.441 27.801 159.129 27.9603 158.791 27.9924C158.454 28.0246 158.117 27.9271 157.849 27.7199L157.724 27.6093L151.397 21.2852C150.135 22.248 148.661 22.8963 147.098 23.1764C145.535 23.4565 143.928 23.3604 142.409 22.8961C140.891 22.4317 139.505 21.6124 138.366 20.506C137.227 19.3996 136.368 18.0379 135.86 16.5335C135.352 15.0291 135.209 13.4254 135.444 11.855C135.678 10.2846 136.284 8.79264 137.21 7.50262C138.135 6.2126 139.355 5.16159 140.768 4.43657C142.18 3.71154 143.745 3.33334 145.333 3.33325ZM145.333 5.99992C143.388 5.99992 141.523 6.77254 140.148 8.1478C138.773 9.52307 138 11.3883 138 13.3333C138 15.2782 138.773 17.1434 140.148 18.5187C141.523 19.894 143.388 20.6666 145.333 20.6666C147.278 20.6666 149.144 19.894 150.519 18.5187C151.894 17.1434 152.667 15.2782 152.667 13.3333C152.667 11.3883 151.894 9.52307 150.519 8.1478C149.144 6.77254 147.278 5.99992 145.333 5.99992Z" fill="#1D1D1D"/>
</svg>
