<svg width="112" height="24" viewBox="0 0 112 24" fill="none" xmlns="http://www.w3.org/2000/svg">
<path d="M9.99997 2.5C11.3979 2.49994 12.7681 2.89061 13.9559 3.62792C15.1436 4.36523 16.1016 5.41983 16.7218 6.6727C17.342 7.92558 17.5997 9.32686 17.4658 10.7184C17.3319 12.11 16.8117 13.4364 15.964 14.548L20.707 19.293C20.8863 19.473 20.9904 19.7144 20.9982 19.9684C21.006 20.2223 20.9168 20.4697 20.7487 20.6603C20.5807 20.8508 20.3464 20.9703 20.0935 20.9944C19.8406 21.0185 19.588 20.9454 19.387 20.79L19.293 20.707L14.548 15.964C13.601 16.6861 12.4956 17.1723 11.3234 17.3824C10.1512 17.5925 8.9458 17.5204 7.80697 17.1721C6.66814 16.8238 5.62862 16.2094 4.77443 15.3795C3.92023 14.5497 3.27592 13.5285 2.8948 12.4002C2.51368 11.2719 2.40672 10.0691 2.58277 8.89131C2.75881 7.7135 3.2128 6.59454 3.90717 5.62703C4.60153 4.65951 5.51631 3.87126 6.57581 3.32749C7.63532 2.78372 8.80908 2.50006 9.99997 2.5V2.5ZM9.99997 4.5C8.54128 4.5 7.14233 5.07946 6.11088 6.11091C5.07943 7.14236 4.49997 8.54131 4.49997 10C4.49997 11.4587 5.07943 12.8576 6.11088 13.8891C7.14233 14.9205 8.54128 15.5 9.99997 15.5C11.4587 15.5 12.8576 14.9205 13.8891 13.8891C14.9205 12.8576 15.5 11.4587 15.5 10C15.5 8.54131 14.9205 7.14236 13.8891 6.11091C12.8576 5.07946 11.4587 4.5 9.99997 4.5Z" fill="#666666"/>
<path d="M54 2.5C55.3979 2.49994 56.7681 2.89061 57.9559 3.62792C59.1436 4.36523 60.1016 5.41983 60.7218 6.6727C61.342 7.92558 61.5997 9.32686 61.4658 10.7184C61.3319 12.11 60.8117 13.4364 59.964 14.548L64.707 19.293C64.8863 19.473 64.9904 19.7144 64.9982 19.9684C65.006 20.2223 64.9168 20.4697 64.7487 20.6603C64.5807 20.8508 64.3464 20.9703 64.0935 20.9944C63.8406 21.0185 63.588 20.9454 63.387 20.79L63.293 20.707L58.548 15.964C57.601 16.6861 56.4956 17.1723 55.3234 17.3824C54.1512 17.5925 52.9458 17.5204 51.807 17.1721C50.6681 16.8238 49.6286 16.2094 48.7744 15.3795C47.9202 14.5497 47.2759 13.5285 46.8948 12.4002C46.5137 11.2719 46.4067 10.0691 46.5828 8.89131C46.7588 7.7135 47.2128 6.59454 47.9072 5.62703C48.6015 4.65951 49.5163 3.87126 50.5758 3.32749C51.6353 2.78372 52.8091 2.50006 54 2.5V2.5ZM54 4.5C52.5413 4.5 51.1423 5.07946 50.1109 6.11091C49.0794 7.14236 48.5 8.54131 48.5 10C48.5 11.4587 49.0794 12.8576 50.1109 13.8891C51.1423 14.9205 52.5413 15.5 54 15.5C55.4587 15.5 56.8576 14.9205 57.8891 13.8891C58.9205 12.8576 59.5 11.4587 59.5 10C59.5 8.54131 58.9205 7.14236 57.8891 6.11091C56.8576 5.07946 55.4587 4.5 54 4.5Z" fill="white"/>
<path d="M98 2.5C99.3979 2.49994 100.768 2.89061 101.956 3.62792C103.144 4.36523 104.102 5.41983 104.722 6.6727C105.342 7.92558 105.6 9.32686 105.466 10.7184C105.332 12.11 104.812 13.4364 103.964 14.548L108.707 19.293C108.886 19.473 108.99 19.7144 108.998 19.9684C109.006 20.2223 108.917 20.4697 108.749 20.6603C108.581 20.8508 108.346 20.9703 108.093 20.9944C107.841 21.0185 107.588 20.9454 107.387 20.79L107.293 20.707L102.548 15.964C101.601 16.6861 100.496 17.1723 99.3234 17.3824C98.1512 17.5925 96.9458 17.5204 95.807 17.1721C94.6681 16.8238 93.6286 16.2094 92.7744 15.3795C91.9202 14.5497 91.2759 13.5285 90.8948 12.4002C90.5137 11.2719 90.4067 10.0691 90.5828 8.89131C90.7588 7.7135 91.2128 6.59454 91.9072 5.62703C92.6015 4.65951 93.5163 3.87126 94.5758 3.32749C95.6353 2.78372 96.8091 2.50006 98 2.5V2.5ZM98 4.5C96.5413 4.5 95.1423 5.07946 94.1109 6.11091C93.0794 7.14236 92.5 8.54131 92.5 10C92.5 11.4587 93.0794 12.8576 94.1109 13.8891C95.1423 14.9205 96.5413 15.5 98 15.5C99.4587 15.5 100.858 14.9205 101.889 13.8891C102.921 12.8576 103.5 11.4587 103.5 10C103.5 8.54131 102.921 7.14236 101.889 6.11091C100.858 5.07946 99.4587 4.5 98 4.5Z" fill="#1D1D1D"/>
</svg>
