<?xml version="1.0" standalone="no"?>
<!DOCTYPE svg PUBLIC "-//W3C//DTD SVG 20010904//EN"
 "http://www.w3.org/TR/2001/REC-SVG-20010904/DTD/svg10.dtd">
<svg version="1.0" xmlns="http://www.w3.org/2000/svg"
 width="512.000000pt" height="512.000000pt" viewBox="0 0 512.000000 512.000000"
 preserveAspectRatio="xMidYMid meet">
<metadata>
Created by potrace 1.11, written by Peter Selinger 2001-2013
</metadata>
<g transform="translate(0.000000,512.000000) scale(0.100000,-0.100000)"
fill="#000000" stroke="none">
<path d="M550 4112 l0 -1008 -276 -272 -275 -272 275 -272 276 -272 0 -1009 0
-1009 33 20 c17 11 52 31 77 44 25 14 63 35 85 48 22 12 99 55 170 95 72 39
202 112 290 162 88 50 192 107 230 128 39 21 75 41 80 45 6 4 37 22 70 40 33
18 76 42 95 53 30 17 227 127 415 232 28 16 66 37 85 48 33 19 252 141 315
177 17 9 57 32 90 50 69 39 58 32 325 182 353 198 633 355 685 383 28 15 55
31 60 35 6 4 35 21 65 37 53 29 359 200 600 335 63 36 140 78 170 95 356 198
620 348 620 354 0 4 -166 99 -439 250 -36 20 -97 54 -136 76 -38 22 -90 51
-115 65 -25 14 -119 67 -210 118 -91 51 -205 115 -255 142 -49 28 -110 62
-135 76 -25 14 -63 35 -85 47 -22 12 -165 93 -318 179 -153 86 -302 170 -330
185 -29 15 -104 57 -167 93 -63 36 -136 77 -162 91 -26 15 -84 47 -128 72 -44
25 -102 57 -128 72 -26 14 -98 54 -159 89 -62 35 -115 64 -118 64 -3 0 -18 8
-33 19 -23 15 -206 118 -442 249 -30 16 -194 108 -365 204 -170 96 -317 177
-325 181 -8 4 -31 17 -50 28 -19 12 -64 37 -100 57 -36 19 -77 43 -92 54 -14
10 -29 18 -33 18 -3 0 -37 17 -73 39 -37 21 -88 50 -114 64 l-48 27 0 -1008z"/>
</g>
</svg>
