<svg width="68" height="112" viewBox="0 0 68 112" fill="none" xmlns="http://www.w3.org/2000/svg">
<path d="M12.3 22H12.2C10.8285 21.9896 9.47293 21.7056 8.21257 21.1647C6.95222 20.6238 5.81245 19.8369 4.86001 18.85C3.09385 16.9613 2.08989 14.4854 2.04187 11.9C1.99386 9.31458 2.9052 6.80304 4.60001 4.85005C5.69189 3.62639 7.06454 2.68613 8.60001 2.11005C8.77917 2.04111 8.97439 2.02519 9.16235 2.0642C9.35032 2.10321 9.52308 2.1955 9.66001 2.33005C9.78682 2.45937 9.87614 2.62071 9.91841 2.79683C9.96068 2.97296 9.95432 3.15725 9.90001 3.33005C9.35196 4.83098 9.24338 6.4571 9.58701 8.01757C9.93063 9.57804 10.7122 11.0081 11.84 12.14C12.9783 13.2644 14.4118 14.0433 15.9745 14.3867C17.5372 14.73 19.1652 14.6237 20.67 14.08C20.8491 14.017 21.0425 14.0062 21.2275 14.0491C21.4125 14.0919 21.5814 14.1864 21.7147 14.3218C21.8479 14.4571 21.9398 14.6275 21.9797 14.8131C22.0196 14.9988 22.0058 15.1919 21.94 15.37C21.4292 16.7338 20.6311 17.9717 19.6 19C18.6408 19.9563 17.5022 20.7137 16.2494 21.2285C14.9966 21.7434 13.6544 22.0056 12.3 22Z" fill="#666666"/>
<path d="M56.3 22H56.2C54.8285 21.9896 53.4729 21.7056 52.2126 21.1647C50.9522 20.6238 49.8124 19.8369 48.86 18.85C47.0939 16.9613 46.0899 14.4854 46.0419 11.9C45.9939 9.31458 46.9052 6.80304 48.6 4.85005C49.6919 3.62639 51.0645 2.68613 52.6 2.11005C52.7792 2.04111 52.9744 2.02519 53.1624 2.0642C53.3503 2.10321 53.5231 2.1955 53.66 2.33005C53.7868 2.45937 53.8761 2.62071 53.9184 2.79683C53.9607 2.97296 53.9543 3.15725 53.9 3.33005C53.352 4.83098 53.2434 6.4571 53.587 8.01757C53.9306 9.57804 54.7122 11.0081 55.84 12.14C56.9783 13.2644 58.4118 14.0433 59.9745 14.3867C61.5372 14.73 63.1652 14.6237 64.67 14.08C64.8491 14.017 65.0425 14.0062 65.2275 14.0491C65.4125 14.0919 65.5814 14.1864 65.7147 14.3218C65.8479 14.4571 65.9398 14.6275 65.9797 14.8131C66.0196 14.9988 66.0058 15.1919 65.94 15.37C65.4292 16.7338 64.6311 17.9717 63.6 19C62.6408 19.9563 61.5022 20.7137 60.2494 21.2285C58.9966 21.7434 57.6544 22.0056 56.3 22Z" fill="#1D1D1D"/>
<path d="M18 59L12 53L6 59" stroke="#666666" stroke-width="2" stroke-linecap="round" stroke-linejoin="round"/>
<path d="M62 59L56 53L50 59" stroke="#1D1D1D" stroke-width="2" stroke-linecap="round" stroke-linejoin="round"/>
<path d="M63.14 100.94C63.18 100.64 63.2 100.33 63.2 100C63.2 99.68 63.18 99.36 63.13 99.06L65.16 97.48C65.2475 97.4079 65.3072 97.3077 65.3291 97.1965C65.351 97.0853 65.3336 96.9699 65.28 96.87L63.36 93.55C63.3035 93.4496 63.2132 93.3724 63.1052 93.3321C62.9972 93.2919 62.8785 93.2911 62.77 93.33L60.38 94.29C59.88 93.91 59.35 93.59 58.76 93.35L58.4 90.81C58.3823 90.6956 58.3241 90.5912 58.236 90.516C58.148 90.4408 58.0358 90.3996 57.92 90.4H54.08C53.84 90.4 53.65 90.57 53.61 90.81L53.25 93.35C52.66 93.59 52.12 93.92 51.63 94.29L49.24 93.33C49.02 93.25 48.77 93.33 48.65 93.55L46.74 96.87C46.62 97.08 46.66 97.34 46.86 97.48L48.89 99.06C48.84 99.36 48.8 99.69 48.8 100C48.8 100.31 48.82 100.64 48.87 100.94L46.84 102.52C46.7525 102.592 46.6927 102.692 46.6709 102.804C46.649 102.915 46.6663 103.03 46.72 103.13L48.64 106.45C48.76 106.67 49.01 106.74 49.23 106.67L51.62 105.71C52.12 106.09 52.65 106.41 53.24 106.65L53.6 109.19C53.65 109.43 53.84 109.6 54.08 109.6H57.92C58.16 109.6 58.36 109.43 58.39 109.19L58.75 106.65C59.34 106.41 59.88 106.09 60.37 105.71L62.76 106.67C62.98 106.75 63.23 106.67 63.35 106.45L65.27 103.13C65.39 102.91 65.34 102.66 65.15 102.52L63.14 100.94ZM56 103.6C54.02 103.6 52.4 101.98 52.4 100C52.4 98.02 54.02 96.4 56 96.4C57.98 96.4 59.6 98.02 59.6 100C59.6 101.98 57.98 103.6 56 103.6Z" fill="#1D1D1D"/>
<path d="M19.14 100.94C19.18 100.64 19.2 100.33 19.2 100C19.2 99.68 19.18 99.36 19.13 99.06L21.16 97.48C21.2475 97.4079 21.3072 97.3077 21.3291 97.1965C21.351 97.0853 21.3336 96.9699 21.28 96.87L19.36 93.55C19.3035 93.4496 19.2132 93.3724 19.1052 93.3321C18.9972 93.2919 18.8785 93.2911 18.77 93.33L16.38 94.29C15.88 93.91 15.35 93.59 14.76 93.35L14.4 90.81C14.3823 90.6956 14.3241 90.5912 14.236 90.516C14.148 90.4408 14.0358 90.3996 13.92 90.4H10.08C9.83999 90.4 9.64999 90.57 9.60999 90.81L9.24999 93.35C8.65999 93.59 8.12 93.92 7.62999 94.29L5.23999 93.33C5.01999 93.25 4.76999 93.33 4.64999 93.55L2.73999 96.87C2.61999 97.08 2.65999 97.34 2.85999 97.48L4.88999 99.06C4.83999 99.36 4.79999 99.69 4.79999 100C4.79999 100.31 4.81999 100.64 4.86999 100.94L2.83999 102.52C2.75252 102.592 2.69275 102.692 2.67087 102.804C2.64899 102.915 2.66635 103.03 2.71999 103.13L4.63999 106.45C4.75999 106.67 5.00999 106.74 5.22999 106.67L7.61999 105.71C8.11999 106.09 8.64999 106.41 9.23999 106.65L9.6 109.19C9.65 109.43 9.83999 109.6 10.08 109.6H13.92C14.16 109.6 14.36 109.43 14.39 109.19L14.75 106.65C15.34 106.41 15.88 106.09 16.37 105.71L18.76 106.67C18.98 106.75 19.23 106.67 19.35 106.45L21.27 103.13C21.39 102.91 21.34 102.66 21.15 102.52L19.14 100.94ZM12 103.6C10.02 103.6 8.39999 101.98 8.39999 100C8.39999 98.02 10.02 96.4 12 96.4C13.98 96.4 15.6 98.02 15.6 100C15.6 101.98 13.98 103.6 12 103.6Z" fill="#666666"/>
</svg>
