<svg width="24" height="288" viewBox="0 0 24 288" fill="none" xmlns="http://www.w3.org/2000/svg">
<path d="M20.0618 150.697C21.1388 149.402 21.888 147.865 22.2458 146.219C22.6035 144.572 22.5595 142.863 22.1173 141.237C21.6751 139.611 20.8477 138.116 19.7052 136.877C18.5628 135.638 17.1388 134.693 15.5537 134.121C13.9686 133.549 12.2691 133.367 10.599 133.591C8.92881 133.815 7.33711 134.438 5.95854 135.407C4.57996 136.376 3.45506 137.663 2.67899 139.158C1.90293 140.654 1.49853 142.315 1.5 144C1.50057 146.45 2.36381 148.821 3.93825 150.697L3.92325 150.71C3.97575 150.773 4.03575 150.827 4.08975 150.889C4.15725 150.967 4.23 151.039 4.29975 151.114C4.50975 151.342 4.72575 151.561 4.95225 151.767C5.02125 151.83 5.0925 151.888 5.16225 151.948C5.40225 152.155 5.649 152.352 5.90475 152.535C5.93775 152.557 5.96775 152.587 6.00075 152.61V152.601C7.75733 153.837 9.85283 154.501 12.0008 154.501C14.1487 154.501 16.2442 153.837 18.0008 152.601V152.61C18.0338 152.587 18.063 152.557 18.0968 152.535C18.3518 152.351 18.5993 152.155 18.8393 151.948C18.909 151.888 18.9803 151.829 19.0493 151.767C19.2758 151.561 19.4918 151.342 19.7018 151.114C19.7715 151.039 19.8435 150.967 19.9118 150.889C19.965 150.827 20.0258 150.773 20.0783 150.709L20.0618 150.697ZM12 138C12.6675 138 13.32 138.198 13.8751 138.569C14.4301 138.94 14.8627 139.467 15.1181 140.083C15.3735 140.7 15.4404 141.379 15.3102 142.033C15.1799 142.688 14.8585 143.289 14.3865 143.761C13.9145 144.233 13.3131 144.555 12.6584 144.685C12.0037 144.815 11.3251 144.749 10.7084 144.493C10.0917 144.238 9.56464 143.805 9.19379 143.25C8.82294 142.695 8.625 142.042 8.625 141.375C8.625 140.48 8.98058 139.621 9.61352 138.988C10.2465 138.356 11.1049 138 12 138V138ZM6.00525 150.697C6.01826 149.713 6.41846 148.773 7.11927 148.081C7.82008 147.389 8.76514 147 9.75 147H14.25C15.2349 147 16.1799 147.389 16.8807 148.081C17.5815 148.773 17.9817 149.713 17.9948 150.697C16.3499 152.18 14.2142 153 12 153C9.78581 153 7.65012 152.18 6.00525 150.697V150.697Z" fill="#FDFDFD"/>
<path d="M21.9 62.7533L21.6733 62.5534C21.0303 61.9804 20.4674 61.3234 20 60.6C19.4895 59.6017 19.1835 58.5115 19.1 57.3934V54.1C19.1044 52.3438 18.4673 50.6463 17.3085 49.3267C16.1496 48.007 14.5488 47.1559 12.8067 46.9333V46.0733C12.8067 45.8373 12.7129 45.6109 12.546 45.444C12.3791 45.2771 12.1527 45.1833 11.9167 45.1833C11.6806 45.1833 11.4542 45.2771 11.2873 45.444C11.1204 45.6109 11.0267 45.8373 11.0267 46.0733V46.9467C9.30016 47.1853 7.71864 48.0415 6.57501 49.3568C5.43138 50.672 4.80315 52.3571 4.80666 54.1V57.3934C4.72316 58.5115 4.41718 59.6017 3.90666 60.6C3.44725 61.3216 2.89346 61.9785 2.25999 62.5534L2.03333 62.7533V64.6334H21.9V62.7533Z" fill="#FDFDFD"/>
<path d="M10.2133 65.3334C10.2718 65.756 10.4812 66.1431 10.8028 66.4233C11.1245 66.7036 11.5367 66.8579 11.9633 66.8579C12.3899 66.8579 12.8021 66.7036 13.1238 66.4233C13.4455 66.1431 13.6549 65.756 13.7133 65.3334H10.2133Z" fill="#FDFDFD"/>
<path d="M21 3H3C1.89 3 1 3.89 1 5V8H3V5H21V19H14V21H21C21.5304 21 22.0391 20.7893 22.4142 20.4142C22.7893 20.0391 23 19.5304 23 19V5C23 4.46957 22.7893 3.96086 22.4142 3.58579C22.0391 3.21071 21.5304 3 21 3ZM1 10V12C2.1819 12 3.35222 12.2328 4.44415 12.6851C5.53608 13.1374 6.52823 13.8003 7.36396 14.636C8.19969 15.4718 8.86262 16.4639 9.31492 17.5558C9.76721 18.6478 10 19.8181 10 21H12C12 14.92 7.07 10 1 10ZM19 7H5V8.63C8.96 9.91 12.09 13.04 13.37 17H19V7ZM1 14V16C1.65661 16 2.30679 16.1293 2.91342 16.3806C3.52005 16.6319 4.07124 17.0002 4.53553 17.4645C4.99983 17.9288 5.36812 18.48 5.6194 19.0866C5.87067 19.6932 6 20.3434 6 21H8C8 19.1435 7.2625 17.363 5.94975 16.0503C4.63699 14.7375 2.85652 14 1 14V14ZM1 18V21H4C4 20.2044 3.68393 19.4413 3.12132 18.8787C2.55871 18.3161 1.79565 18 1 18V18Z" fill="#FDFDFD"/>
<path d="M10 90.5C11.398 90.4999 12.7681 90.8906 13.9559 91.6279C15.1436 92.3652 16.1016 93.4198 16.7218 94.6727C17.342 95.9256 17.5997 97.3269 17.4658 98.7184C17.3319 100.11 16.8117 101.436 15.964 102.548L20.707 107.293C20.8864 107.473 20.9905 107.714 20.9982 107.968C21.006 108.222 20.9168 108.47 20.7488 108.66C20.5807 108.851 20.3464 108.97 20.0935 108.994C19.8406 109.018 19.588 108.945 19.387 108.79L19.293 108.707L14.548 103.964C13.601 104.686 12.4957 105.172 11.3234 105.382C10.1512 105.592 8.94583 105.52 7.807 105.172C6.66817 104.824 5.62865 104.209 4.77446 103.38C3.92026 102.55 3.27595 101.528 2.89483 100.4C2.51371 99.2719 2.40675 98.0691 2.5828 96.8913C2.75884 95.7135 3.21283 94.5945 3.9072 93.627C4.60156 92.6595 5.51634 91.8713 6.57585 91.3275C7.63535 90.7837 8.80911 90.5001 10 90.5V90.5ZM10 92.5C8.54131 92.5 7.14236 93.0795 6.11091 94.1109C5.07946 95.1424 4.5 96.5413 4.5 98C4.5 99.4587 5.07946 100.858 6.11091 101.889C7.14236 102.921 8.54131 103.5 10 103.5C11.4587 103.5 12.8576 102.921 13.8891 101.889C14.9205 100.858 15.5 99.4587 15.5 98C15.5 96.5413 14.9205 95.1424 13.8891 94.1109C12.8576 93.0795 11.4587 92.5 10 92.5Z" fill="#FDFDFD"/>
<path d="M12.3 198H12.2C10.8285 197.99 9.47293 197.706 8.21257 197.165C6.95222 196.624 5.81245 195.837 4.86001 194.85C3.09385 192.961 2.08989 190.485 2.04187 187.9C1.99386 185.315 2.9052 182.803 4.60001 180.85C5.69189 179.626 7.06454 178.686 8.60001 178.11C8.77917 178.041 8.97439 178.025 9.16235 178.064C9.35032 178.103 9.52308 178.196 9.66001 178.33C9.78682 178.459 9.87614 178.621 9.91841 178.797C9.96068 178.973 9.95432 179.157 9.90001 179.33C9.35196 180.831 9.24338 182.457 9.58701 184.018C9.93063 185.578 10.7122 187.008 11.84 188.14C12.9783 189.264 14.4118 190.043 15.9745 190.387C17.5372 190.73 19.1652 190.624 20.67 190.08C20.8491 190.017 21.0425 190.006 21.2275 190.049C21.4125 190.092 21.5814 190.186 21.7147 190.322C21.8479 190.457 21.9398 190.628 21.9797 190.813C22.0196 190.999 22.0058 191.192 21.94 191.37C21.4292 192.734 20.6311 193.972 19.6 195C18.6408 195.956 17.5022 196.714 16.2494 197.229C14.9966 197.743 13.6544 198.006 12.3 198V198Z" fill="#FDFDFD"/>
<path d="M18 235L12 229L6 235" stroke="#FDFDFD" stroke-width="2" stroke-linecap="round" stroke-linejoin="round"/>
<path d="M19.14 276.94C19.18 276.64 19.2 276.33 19.2 276C19.2 275.68 19.18 275.36 19.13 275.06L21.16 273.48C21.2475 273.408 21.3072 273.308 21.3291 273.196C21.351 273.085 21.3336 272.97 21.28 272.87L19.36 269.55C19.3035 269.45 19.2132 269.372 19.1052 269.332C18.9972 269.292 18.8785 269.291 18.77 269.33L16.38 270.29C15.88 269.91 15.35 269.59 14.76 269.35L14.4 266.81C14.3823 266.696 14.3241 266.591 14.236 266.516C14.148 266.441 14.0358 266.4 13.92 266.4H10.08C9.83999 266.4 9.64999 266.57 9.60999 266.81L9.24999 269.35C8.65999 269.59 8.11999 269.92 7.62999 270.29L5.23999 269.33C5.01999 269.25 4.76999 269.33 4.64999 269.55L2.73999 272.87C2.61999 273.08 2.65999 273.34 2.85999 273.48L4.88999 275.06C4.83999 275.36 4.79999 275.69 4.79999 276C4.79999 276.31 4.81999 276.64 4.86999 276.94L2.83999 278.52C2.75252 278.592 2.69275 278.692 2.67087 278.804C2.64899 278.915 2.66635 279.03 2.71999 279.13L4.63999 282.45C4.75999 282.67 5.00999 282.74 5.22999 282.67L7.61999 281.71C8.11999 282.09 8.64999 282.41 9.23999 282.65L9.6 285.19C9.65 285.43 9.83999 285.6 10.08 285.6H13.92C14.16 285.6 14.36 285.43 14.39 285.19L14.75 282.65C15.34 282.41 15.88 282.09 16.37 281.71L18.76 282.67C18.98 282.75 19.23 282.67 19.35 282.45L21.27 279.13C21.39 278.91 21.34 278.66 21.15 278.52L19.14 276.94V276.94ZM12 279.6C10.02 279.6 8.39999 277.98 8.39999 276C8.39999 274.02 10.02 272.4 12 272.4C13.98 272.4 15.6 274.02 15.6 276C15.6 277.98 13.98 279.6 12 279.6Z" fill="#FDFDFD"/>
</svg>
